<mxfile host="app.diagrams.net" modified="2023-08-30T01:37:26.797Z" agent="Mozilla/5.0 (Windows NT 10.0; Win64; x64) AppleWebKit/537.36 (KHTML, like Gecko) Chrome/114.0.0.0 Safari/537.36 OPR/100.0.0.0" version="21.7.0" etag="PSX-L3jaCMd0JzxlmvCC" type="github">
  <diagram name="PÃ¡gina-1" id="Gps2DG338f0RU6yvUthb">
    <mxGraphModel>
      <root>
        <mxCell id="0" />
        <mxCell id="1" parent="0" />
      </root>
    </mxGraphModel>
  </diagram>
</mxfile>
